<?xml version="1.0" encoding="utf-8"?>
<!-- Generator: Adobe Illustrator 26.0.0, SVG Export Plug-In . SVG Version: 6.00 Build 0)  -->
<svg version="1.1" id="Capa_1" xmlns="http://www.w3.org/2000/svg" xmlns:xlink="http://www.w3.org/1999/xlink" x="0px"
	y="0px" viewBox="0 0 90.2 74.7" style="enable-background:new 0 0 90.2 74.7;" xml:space="preserve">
	<style type="text/css">
		.st0 {
			fill: #FF0066;
		}
	</style>
	<path class="st0" d="M86.6,60.2c-13.5,19.6-68.5,19-82.6-1c-14-20,12.9-59.4,40.5-59C72,0.5,100.1,40.5,86.6,60.2z" />
	<g>
		<path d="M24,39.6c0.8,0.5,1.5,1.1,2,1.7s0.8,1.5,1,2.4s0.3,2.3,0.3,3.8c0,1.2,0,2,0.1,2.6s0.2,1,0.3,1.3s0.3,0.5,0.6,0.6
		s0.6,0.2,1.1,0.3c0.4,0.1,0.8,0.3,1.1,0.7s0.4,0.9,0.4,1.5c0,1.4-0.9,2.1-2.6,2.1c-1.1,0-2-0.2-2.9-0.7s-1.5-1.1-1.9-1.9
		s-0.7-1.7-0.7-2.8c0-1.8-0.1-3.2-0.1-4.3s-0.1-1.8-0.2-2.1c-0.2-0.8-0.4-1.4-0.8-1.8s-0.8-0.8-1.4-1.1s-1-0.7-1.2-0.9
		s-0.4-0.7-0.4-1.3c0-0.9,0.3-1.5,1-2c0.8-0.5,1.4-1,1.8-1.3s0.6-0.8,0.8-1.4s0.2-1.2,0.3-1.9c0-0.7,0.1-2.3,0.1-4.9
		c0-1.6,0.5-2.9,1.5-3.9s2.3-1.5,4-1.5s2.6,0.7,2.6,2.1c0,0.6-0.1,1.1-0.4,1.5S29.7,27,29.3,27c-0.7,0.1-1.2,0.2-1.4,0.4
		s-0.4,0.6-0.5,1.1s-0.1,1.6-0.2,3.1c0,1.5-0.1,2.8-0.3,3.7s-0.5,1.8-0.9,2.5S24.8,39.1,24,39.6z" />
		<path d="M66.3,39.6c-0.6-0.4-1.1-0.8-1.5-1.2s-0.7-1-1-1.6s-0.4-1.4-0.5-2.2s-0.2-1.8-0.2-3c0-1.1,0-2-0.1-2.6s-0.1-1-0.3-1.3
		s-0.3-0.5-0.6-0.6s-0.6-0.2-1.2-0.2c-0.4-0.1-0.8-0.3-1.1-0.6s-0.4-0.9-0.4-1.5c0-1.4,0.8-2.1,2.5-2.1c1.1,0,2,0.2,2.9,0.7
		c0.9,0.5,1.5,1.1,2,1.9s0.7,1.7,0.7,2.8c0.1,3.9,0.2,6,0.2,6.4c0.2,0.8,0.5,1.4,0.8,1.8s0.8,0.8,1.3,1.1s0.9,0.6,1.2,0.9
		s0.4,0.8,0.4,1.4c0,0.9-0.3,1.5-1,1.9c-0.8,0.5-1.4,0.9-1.8,1.3s-0.6,0.9-0.8,1.4s-0.2,1.4-0.3,2.6s-0.1,2.6-0.1,4.3
		c0,1.6-0.6,2.9-1.6,3.9s-2.3,1.5-4,1.5c-0.8,0-1.5-0.2-1.9-0.5s-0.7-0.9-0.7-1.6c0-0.4,0.1-0.7,0.2-1.1s0.3-0.6,0.6-0.7
		s0.5-0.3,0.8-0.3c0.5-0.1,0.9-0.2,1.2-0.3s0.5-0.3,0.6-0.6s0.2-0.7,0.3-1.3s0.1-1.4,0.1-2.5c0-1.6,0.1-2.9,0.3-3.8s0.5-1.7,0.9-2.4
		C64.6,40.8,65.4,40.2,66.3,39.6z" />
		<g>
			<path d="M44.5,49V33c-3,2.3-5,3.4-6,3.4c-0.5,0-0.9-0.2-1.3-0.6s-0.6-0.8-0.6-1.4c0-0.6,0.2-1,0.6-1.3s1-0.6,2-1.1
			c1.4-0.7,2.6-1.4,3.4-2.1s1.6-1.6,2.3-2.5s1.1-1.5,1.3-1.7c0.2-0.2,0.6-0.3,1.1-0.3c0.6,0,1.1,0.2,1.5,0.7s0.6,1.1,0.6,2v20.1
			c0,2.4-0.8,3.5-2.4,3.5c-0.7,0-1.3-0.2-1.7-0.7S44.5,50,44.5,49z" />
		</g>
	</g>
</svg>